<?xml version="1.0" encoding="utf-8"?>
<!-- Generator: Adobe Illustrator 23.0.3, SVG Export Plug-In . SVG Version: 6.00 Build 0)  -->
<svg version="1.1" id="Layer_1" xmlns="http://www.w3.org/2000/svg" xmlns:xlink="http://www.w3.org/1999/xlink" x="0px" y="0px"
	 viewBox="0 0 52.6 50" style="enable-background:new 0 0 52.6 50;" xml:space="preserve">
<style type="text/css">
	.st0{fill:#FFA02E;}
	.st1{fill:#E58800;}
	.st2{fill:#FFB56C;}
	.st3{fill:#FFF4E6;}
</style>
<g transform="translate(-229.692 -231.275)">
	<path class="st0" d="M281.5,231.3h-51.1c-0.4,0-0.8,0.3-0.8,0.8v43.4c0,0.4,0.3,0.8,0.8,0.8h51.1c0.4,0,0.8-0.3,0.8-0.8V232
		C282.3,231.6,282,231.3,281.5,231.3L281.5,231.3z"/>
	<path class="st1" d="M281.5,231.3h-2.5c0.4,0,0.8,0.3,0.8,0.8v43.4c0,0.4-0.3,0.8-0.8,0.8h2.5c0.4,0,0.8-0.3,0.8-0.8V232
		C282.3,231.6,282,231.3,281.5,231.3L281.5,231.3z"/>
	<path class="st0" d="M245.9,266.3h-6.1c-0.4,0-0.8,0.3-0.8,0.8v13.5c0,0.4,0.3,0.8,0.8,0.8c0.2,0,0.3-0.1,0.5-0.2l2.6-2.1l2.5,2.1
		c0.1,0.1,0.3,0.2,0.5,0.2c0.4,0,0.8-0.3,0.8-0.8V267C246.7,266.6,246.3,266.3,245.9,266.3C245.9,266.3,245.9,266.3,245.9,266.3z"/>
	<path class="st1" d="M245.9,266.3h-2.5c0.4,0,0.8,0.3,0.8,0.8v13.1l1.2,1c0.1,0.1,0.3,0.2,0.5,0.2c0.4,0,0.8-0.3,0.8-0.8V267
		C246.7,266.6,246.3,266.3,245.9,266.3C245.9,266.3,245.9,266.3,245.9,266.3z"/>
	<path class="st2" d="M250.9,235.1h-16.2c-0.4,0-0.8,0.3-0.8,0.8v35.6c0,0.4,0.3,0.8,0.8,0.8h16.2c3.2,0,5.9-2.6,5.9-5.9V241
		C256.8,237.7,254.1,235.1,250.9,235.1z"/>
	<path class="st2" d="M277.3,235.1h-16.2c-3.2,0-5.9,2.6-5.9,5.9v25.5c0,3.2,2.6,5.9,5.9,5.9h16.2c0.4,0,0.8-0.3,0.8-0.8v-35.6
		C278,235.4,277.7,235.1,277.3,235.1L277.3,235.1z"/>
	<path class="st1" d="M277.3,235.1h-2.5c0.4,0,0.8,0.3,0.8,0.8v35.6c0,0.4-0.3,0.8-0.8,0.8h2.5c0.4,0,0.8-0.3,0.8-0.8v-35.6
		C278,235.4,277.7,235.1,277.3,235.1L277.3,235.1z"/>
	<path class="st3" d="M250.8,252.4H250c-0.6-0.2-1-0.9-0.8-1.5c0.2-0.6,0.9-1,1.5-0.8c0.4,0.1,0.6,0.4,0.8,0.8v0.8
		C251.5,252.1,251.2,252.4,250.8,252.4C250.8,252.4,250.8,252.4,250.8,252.4z"/>
	<path class="st3" d="M247.4,252.4H246c-0.4,0-0.8-0.3-0.8-0.8c0-0.4,0.3-0.8,0.8-0.8h1.3c0.4,0,0.8,0.3,0.8,0.8
		C248.2,252.1,247.8,252.4,247.4,252.4L247.4,252.4z M243.4,252.4h-1.3c-0.4,0-0.8-0.3-0.8-0.8c0-0.4,0.3-0.8,0.8-0.8h1.3
		c0.4,0,0.8,0.3,0.8,0.8C244.2,252.1,243.9,252.4,243.4,252.4z"/>
	<path class="st3" d="M239.5,252.4h-0.8c-0.4,0-0.8-0.3-0.8-0.8v-0.8c0.2-0.6,0.9-1,1.5-0.8c0.6,0.2,1,0.9,0.8,1.5
		C240.1,252,239.8,252.3,239.5,252.4L239.5,252.4z"/>
	<path class="st3" d="M238.7,249.3c-0.4,0-0.8-0.3-0.8-0.8v-1.2c0-0.4,0.3-0.8,0.7-0.8c0.4,0,0.8,0.3,0.8,0.7c0,0,0,0,0,0.1v1.2
		C239.5,248.9,239.1,249.3,238.7,249.3z M238.7,245.7c-0.4,0-0.8-0.3-0.8-0.8c0,0,0,0,0,0v-1.2c0-0.4,0.3-0.8,0.7-0.8
		c0.4,0,0.8,0.3,0.8,0.7c0,0,0,0,0,0.1v1.2C239.5,245.4,239.1,245.7,238.7,245.7C238.7,245.7,238.7,245.7,238.7,245.7L238.7,245.7z"
		/>
	<path class="st3" d="M238.7,242.1c-0.4,0-0.8-0.3-0.8-0.8c0,0,0,0,0,0v-0.8c0-0.4,0.3-0.8,0.8-0.8h0.8
		C239.9,240.7,239.6,241.7,238.7,242.1C238.7,242.1,238.7,242.1,238.7,242.1z"/>
	<path class="st3" d="M247.4,241.4H246c-0.4,0-0.8-0.3-0.8-0.8c0-0.4,0.3-0.8,0.8-0.8h1.3c0.4,0,0.8,0.3,0.8,0.8
		C248.2,241,247.8,241.4,247.4,241.4L247.4,241.4z M243.4,241.4h-1.3c-0.4,0-0.8-0.3-0.8-0.8c0-0.4,0.3-0.8,0.8-0.8h1.3
		c0.4,0,0.8,0.3,0.8,0.8C244.2,241,243.9,241.4,243.4,241.4z"/>
	<path class="st3" d="M250.8,242.1c-0.6,0.2-1.3-0.2-1.5-0.8c-0.2-0.6,0.1-1.3,0.8-1.5h0.8c0.4,0,0.8,0.3,0.8,0.8v0.8
		C251.5,241.8,251.2,242.1,250.8,242.1z"/>
	<path class="st3" d="M250.8,249.3c-0.4,0-0.8-0.3-0.8-0.8v-1.2c0-0.4,0.3-0.8,0.8-0.8c0.4,0,0.8,0.3,0.8,0.8l0,0v1.2
		C251.5,248.9,251.2,249.3,250.8,249.3C250.8,249.3,250.8,249.3,250.8,249.3z M250.8,245.7c-0.4,0-0.8-0.3-0.8-0.8v-1.2
		c0-0.4,0.3-0.8,0.8-0.8c0.4,0,0.8,0.3,0.8,0.8v1.2C251.5,245.4,251.2,245.7,250.8,245.7C250.8,245.7,250.8,245.7,250.8,245.7
		L250.8,245.7z"/>
	<path class="st3" d="M261.4,264.4h-0.8c-0.4,0-0.8-0.3-0.8-0.8v-0.8c0.2-0.6,0.9-1,1.5-0.8c0.6,0.2,1,0.9,0.8,1.5
		C262.1,264,261.8,264.3,261.4,264.4z"/>
	<path class="st3" d="M260.7,261.2c-0.4,0-0.8-0.3-0.8-0.8v-1.4c0-0.4,0.3-0.8,0.8-0.8c0.4,0,0.8,0.3,0.8,0.8v1.4
		C261.4,260.8,261.1,261.2,260.7,261.2z"/>
	<path class="st3" d="M260.7,257.4c-0.4,0-0.8-0.3-0.8-0.8v-0.8c0-0.4,0.3-0.8,0.8-0.8h0.8C261.9,255.9,261.5,256.9,260.7,257.4
		C260.7,257.4,260.7,257.4,260.7,257.4z"/>
	<path class="st3" d="M270.6,256.6h-1.6c-0.4,0-0.8-0.3-0.8-0.7c0-0.4,0.3-0.8,0.7-0.8c0,0,0,0,0.1,0h1.6c0.4,0,0.8,0.3,0.8,0.7
		C271.4,256.2,271.1,256.6,270.6,256.6C270.6,256.6,270.6,256.6,270.6,256.6z M266,256.6h-1.6c-0.4,0-0.8-0.3-0.8-0.7
		c0-0.4,0.3-0.8,0.7-0.8c0,0,0,0,0.1,0h1.6c0.4,0,0.8,0.3,0.8,0.7C266.8,256.2,266.5,256.6,266,256.6C266,256.6,266,256.6,266,256.6
		z"/>
	<path class="st3" d="M274.3,257.4c-0.5-0.5-1-1-1.5-1.5c0-0.4,0.3-0.8,0.8-0.8h0.8c0.4,0,0.8,0.3,0.8,0.8v0.8
		C275,257,274.7,257.4,274.3,257.4z"/>
	<path class="st3" d="M274.3,261.2c-0.4,0-0.8-0.3-0.8-0.8v-1.4c0-0.4,0.3-0.8,0.8-0.8c0.4,0,0.8,0.3,0.8,0.8v1.4
		C275,260.8,274.7,261.2,274.3,261.2z"/>
	<path class="st3" d="M274.3,264.4h-0.8c-0.6-0.2-1-0.9-0.8-1.5s0.9-1,1.5-0.8c0.4,0.1,0.7,0.4,0.8,0.8v0.8
		C275,264.1,274.7,264.4,274.3,264.4z"/>
	<path class="st3" d="M270.6,264.4h-1.6c-0.4,0-0.8-0.3-0.8-0.8c0-0.4,0.3-0.8,0.8-0.8h1.6c0.4,0,0.8,0.3,0.8,0.8
		C271.3,264.1,271,264.4,270.6,264.4z M266,264.4h-1.6c-0.4,0-0.8-0.3-0.8-0.8c0-0.4,0.3-0.8,0.8-0.8h1.6c0.4,0,0.8,0.3,0.8,0.8
		C266.8,264.1,266.4,264.4,266,264.4z"/>
	<path class="st3" d="M251.6,256.6h-13.4c-0.4,0-0.8-0.3-0.8-0.8c0-0.4,0.3-0.8,0.8-0.8h13.4c0.4,0,0.8,0.3,0.8,0.8
		C252.4,256.2,252.1,256.6,251.6,256.6L251.6,256.6z"/>
	<path class="st3" d="M251.6,260.4h-13.4c-0.4,0-0.8-0.3-0.8-0.8c0-0.4,0.3-0.8,0.8-0.8h13.4c0.4,0,0.8,0.3,0.8,0.8
		C252.4,260.1,252.1,260.4,251.6,260.4L251.6,260.4z"/>
	<path class="st3" d="M251.6,264.3h-13.4c-0.4,0-0.8-0.3-0.8-0.8c0-0.4,0.3-0.8,0.8-0.8h13.4c0.4,0,0.8,0.3,0.8,0.8
		C252.4,263.9,252.1,264.3,251.6,264.3L251.6,264.3z"/>
	<path class="st3" d="M251.6,268.1h-13.4c-0.4,0-0.8-0.3-0.8-0.8c0-0.4,0.3-0.8,0.8-0.8h13.4c0.4,0,0.8,0.3,0.8,0.8
		C252.4,267.8,252.1,268.1,251.6,268.1C251.7,268.1,251.7,268.1,251.6,268.1z"/>
	<path class="st3" d="M273.9,268.1h-13.4c-0.4,0-0.8-0.3-0.8-0.8c0-0.4,0.3-0.8,0.8-0.8h13.4c0.4,0,0.8,0.3,0.8,0.8
		C274.7,267.8,274.4,268.1,273.9,268.1z"/>
	<path class="st3" d="M274.1,241.4h-13.4c-0.4,0-0.8-0.3-0.8-0.8c0-0.4,0.3-0.8,0.8-0.8h13.4c0.4,0,0.8,0.3,0.8,0.8
		C274.8,241,274.5,241.4,274.1,241.4L274.1,241.4L274.1,241.4z"/>
	<path class="st3" d="M274.1,245.2h-13.4c-0.4,0-0.8-0.3-0.8-0.7c0-0.4,0.3-0.8,0.7-0.8c0,0,0,0,0.1,0h13.4c0.4,0,0.8,0.3,0.8,0.7
		C274.9,244.8,274.5,245.2,274.1,245.2C274.1,245.2,274.1,245.2,274.1,245.2L274.1,245.2z"/>
	<path class="st3" d="M274.1,249.1h-13.4c-0.4,0-0.8-0.3-0.8-0.8c0-0.4,0.3-0.8,0.8-0.8h13.4c0.4,0,0.8,0.3,0.8,0.8
		C274.8,248.7,274.5,249.1,274.1,249.1L274.1,249.1L274.1,249.1z"/>
	<path class="st3" d="M274.1,252.9h-13.4c-0.4,0-0.8-0.3-0.8-0.8c0-0.4,0.3-0.8,0.8-0.8h13.4c0.4,0,0.8,0.3,0.8,0.8
		C274.8,252.6,274.5,252.9,274.1,252.9L274.1,252.9L274.1,252.9z"/>
</g>
</svg>
