<?xml version="1.0" encoding="utf-8"?>
<!-- Generator: Adobe Illustrator 23.0.3, SVG Export Plug-In . SVG Version: 6.00 Build 0)  -->
<svg version="1.1" id="Layer_1" xmlns="http://www.w3.org/2000/svg" xmlns:xlink="http://www.w3.org/1999/xlink" x="0px" y="0px"
	 viewBox="0 0 50 50" style="enable-background:new 0 0 50 50;" xml:space="preserve">
<style type="text/css">
	.st0{fill:#F39500;}
	.st1{fill:#FFA02E;}
	.st2{fill:#6BDB9D;}
	.st3{fill:#FFC77D;}
	.st4{fill:#E58800;}
	.st5{fill:#FFB03E;}
</style>
<g transform="translate(-231 -231)">
	<path class="st0" d="M281,250.1c0-2.4-2-4.4-4.4-4.4c0,0,0,0,0,0h-35.4c-0.1,0-0.2,0-0.4,0c-2.3,0.2-4.1,2.1-4,4.4v1.5l2.9,4.4
		l-2.9,4.4v16.2c0,2.4,2,4.4,4.4,4.4c0,0,0,0,0,0h35.4c2.4,0,4.4-2,4.4-4.4c0,0,0,0,0,0V250.1z"/>
	<path class="st1" d="M276.6,245.7h-17.7V281h17.7c2.4,0,4.4-2,4.4-4.4c0,0,0,0,0,0v-26.5C281,247.7,279,245.7,276.6,245.7
		C276.6,245.7,276.6,245.7,276.6,245.7z"/>
	<path class="st2" d="M258.9,250.7l-2.8-4.9h-14.8c-0.1,0-0.2,0-0.4,0l18,31.1l2.4,4.2h15.2L258.9,250.7z"/>
	<path class="st3" d="M276.5,281h-15.2l-2.4-4.2v-26.2L276.5,281z"/>
	<path class="st4" d="M253.1,233c-1.1-1.3-2.8-2-4.5-2c-1.7,0-3.3,0.7-4.4,2c-1.1-1.3-2.7-2-4.4-2c-3.3,0.1-5.9,2.7-5.9,6
		c0,3.2,2.6,5.8,5.9,5.9h8.8c1.7,0,3.4-0.7,4.5-2c1-1,1.5-2.4,1.5-3.8C254.5,235.5,254,234.1,253.1,233z M242.7,239.9h-2.9
		c-1.6,0-2.9-1.3-2.9-2.9c-0.1-1.6,1.2-3,2.8-3s3,1.2,3,2.8c0,0.1,0,0.1,0,0.2L242.7,239.9z M248.6,239.9h-2.9V237
		c0-1.6,1.3-3,2.9-3c1.7,0,3,1.4,3,3C251.6,238.6,250.2,239.9,248.6,239.9z"/>
	<path class="st4" d="M254.5,237c0,1.4-0.5,2.8-1.5,3.8V233C254,234.1,254.5,235.5,254.5,237z"/>
	<path class="st5" d="M275.1,244.3c0-2.4-2-4.4-4.4-4.4c0,0,0,0,0,0h-35.3c-0.1,0-0.2,0-0.4,0c-2.3,0.2-4.1,2.1-4,4.4v1.5l2.9,4.4
		l-2.9,4.4v16.2c0,2.4,2,4.4,4.4,4.4c0,0,0,0,0,0h35.4c2.4,0,4.4-2,4.4-4.4c0,0,0,0,0,0v-16.2l-2.9-4.4l2.9-4.4L275.1,244.3z"/>
	<path class="st5" d="M270.7,239.9h-17.7v35.3h17.7c2.4,0,4.4-2,4.4-4.4c0,0,0,0,0,0v-16.2l-2.9-4.4l2.9-4.4v-1.5
		C275.1,241.9,273.2,239.9,270.7,239.9C270.8,239.9,270.7,239.9,270.7,239.9z"/>
	<rect x="231" y="245.6" class="st3" width="44.1" height="8.8"/>
	<rect x="253.1" y="245.6" class="st3" width="22.1" height="8.8"/>
	<path class="st0" d="M253.1,244.8l-2.9-4.9h-14.7c-0.1,0-0.2,0-0.4,0l18,31.1l2.4,4.2h15.2L253.1,244.8z"/>
	<path class="st3" d="M270.7,275.1h-15.2l-2.4-4.2v-26.2L270.7,275.1z"/>
</g>
</svg>
