<?xml version="1.0" encoding="utf-8"?>
<!-- Generator: Adobe Illustrator 23.0.3, SVG Export Plug-In . SVG Version: 6.00 Build 0)  -->
<svg version="1.1" id="Layer_1" xmlns="http://www.w3.org/2000/svg" xmlns:xlink="http://www.w3.org/1999/xlink" x="0px" y="0px"
	 viewBox="0 0 512 512" style="enable-background:new 0 0 512 512;" xml:space="preserve">
<style type="text/css">
	.st0{fill:#FFA92C;}
	.st1{fill:#F39500;}
	.st2{fill:#3C3F4D;}
	.st3{fill:#C4E2F2;}
	.st4{fill:#83B2C6;}
	.st5{fill:#2D303B;}
</style>
<path class="st0" d="M135.4,146.9H512v218.8H135.4V146.9z"/>
<path class="st1" d="M479.1,292.4v-72.1c-22.3,0-40.4-18.1-40.4-40.4H208.7c0,22.3-18.1,40.4-40.4,40.4v72.1
	c22.3,0,40.4,18.1,40.4,40.4h229.9C438.6,310.5,456.8,292.4,479.1,292.4z"/>
<path class="st0" d="M364.4,256.3c0,22.5-18.2,40.8-40.8,40.8s-40.8-18.2-40.8-40.8s18.2-40.8,40.8-40.8S364.4,233.8,364.4,256.3z"
	/>
<path class="st0" d="M429.5,264.2h-25.1c-4.3,0-7.8-3.5-7.8-7.8c0-4.3,3.5-7.8,7.8-7.8h25.1c4.3,0,7.8,3.5,7.8,7.8
	C437.3,260.7,433.8,264.2,429.5,264.2z"/>
<path class="st1" d="M479.1,187.7c-7.1,0-10.5-9-5.2-13.7c2.6-2.3,6.6-2.6,9.6-0.7c2.6,1.7,4,5,3.3,8.1
	C486,185,482.8,187.7,479.1,187.7z"/>
<path class="st1" d="M479.1,340.7c-3.1,0-5.9-1.9-7.2-4.7c-1.4-3.1-0.5-6.9,2.1-9.1c5.4-4.5,13.9,0.1,12.8,7.1
	C486.3,337.8,482.9,340.7,479.1,340.7z"/>
<path class="st2" d="M279.2,509.7H37.1C16.6,509.7,0,493.1,0,472.6V40.1C0,19.6,16.6,3,37.1,3h242.1c20.5,0,37.1,16.6,37.1,37.1
	v432.4C316.4,493.1,299.7,509.7,279.2,509.7z"/>
<path class="st3" d="M266.7,68H49.7c-10.3,0-18.7,8.4-18.7,18.7v339c0,10.3,8.4,18.7,18.7,18.7h217.1c10.3,0,18.7-8.4,18.7-18.7
	v-339C285.4,76.3,277.1,68,266.7,68z"/>
<path class="st4" d="M285.4,86.7v339c0,10.3-8.4,18.7-18.7,18.7h-26.5c10.3,0,18.7-8.4,18.7-18.7v-339c0-10.3-8.4-18.7-18.7-18.7
	h26.5C277,68,285.4,76.3,285.4,86.7z"/>
<path class="st0" d="M74.1,124.9h211.3v260.8H74.1V124.9z"/>
<path class="st1" d="M285.4,164.1v182.3H161.5c0-26.6-21.6-48.2-48.2-48.2v-85.9c26.6,0,48.2-21.6,48.2-48.2H285.4z"/>
<path class="st0" d="M285.4,208.5V302c-20.5-5.7-35.5-24.5-35.5-46.8S265,214.2,285.4,208.5z"/>
<path class="st0" d="M202.4,265.2h-29.9c-5.5,0-9.9-4.4-9.9-9.9c0-5.5,4.4-9.9,9.9-9.9h29.9c5.5,0,9.9,4.4,9.9,9.9
	C212.3,260.7,207.8,265.2,202.4,265.2z"/>
<path class="st1" d="M113.3,356.4c-4.1,0-7.8-2.6-9.2-6.3c-1.5-3.9-0.3-8.6,2.9-11.3c3.3-2.7,7.9-3,11.5-0.8
	c3.5,2.1,5.3,6.4,4.5,10.4C122.1,353,118,356.4,113.3,356.4z"/>
<path class="st1" d="M113.3,174c-4.1,0-7.8-2.6-9.2-6.3c-1.5-3.9-0.4-8.6,2.9-11.3c3.3-2.6,8-3,11.5-0.8c3.5,2.1,5.3,6.4,4.5,10.4
	C122.1,170.6,118,174,113.3,174z"/>
<g>
	<path class="st5" d="M185.9,45.5h-55.4c-4.3,0-7.8-3.5-7.8-7.8s3.5-7.8,7.8-7.8h55.4c4.3,0,7.8,3.5,7.8,7.8S190.2,45.5,185.9,45.5z
		"/>
	<path class="st5" d="M181.3,477c0,12.7-10.3,23.1-23.1,23.1s-23.1-10.3-23.1-23.1s10.3-23.1,23.1-23.1S181.3,464.3,181.3,477z"/>
</g>
</svg>
