<?xml version="1.0" encoding="utf-8"?>
<!-- Generator: Adobe Illustrator 23.0.3, SVG Export Plug-In . SVG Version: 6.00 Build 0)  -->
<svg version="1.1" id="Layer_1" xmlns="http://www.w3.org/2000/svg" xmlns:xlink="http://www.w3.org/1999/xlink" x="0px" y="0px"
	 viewBox="0 0 41.7 50" style="enable-background:new 0 0 41.7 50;" xml:space="preserve">
<style type="text/css">
	.st0{fill:#F39500;}
	.st1{fill:#FFA92C;}
	.st2{fill:#E58800;}
</style>
<g transform="translate(-235.167 -231)">
	<path class="st0" d="M272.6,261.5c1.4,0.8,1.2,4.4,0.7,4.8h-34.8c-0.5-0.5-0.6-4,0.7-4.8c3.8-2.2,5.1-8.1,5.6-13.9
		c0.4-6.1,5.7-10.7,11.8-10.3c5.5,0.4,9.9,4.8,10.3,10.3C267.5,253.4,268.8,259.3,272.6,261.5z"/>
	<path class="st1" d="M256,271.6c2.9,0,5.3-2.4,5.3-5.3h-10.6C250.7,269.2,253.1,271.6,256,271.6z"/>
	<path class="st1" d="M256,237.3c1.4,0,2.6-1.2,2.6-2.6s-1.2-2.6-2.6-2.6c-1.4,0-2.6,1.2-2.6,2.6C253.4,236.1,254.6,237.3,256,237.3
		z"/>
	<path class="st2" d="M237.4,257.6c-0.4-0.4-1-0.5-1.5-0.1c-0.1,0.1-0.2,0.2-0.4,0.3c-0.4,0.4-0.4,1.1-0.1,1.5
		c0.4,0.4,1,0.4,1.4,0.1c0.1-0.1,0.3-0.2,0.4-0.4C237.7,258.7,237.8,258.1,237.4,257.6C237.4,257.6,237.4,257.6,237.4,257.6z"/>
	<path class="st2" d="M238.1,256.9c0.5,0.3,1.1,0.2,1.4-0.3c1.7-2.5,2-4.9,2.3-9.3c0.1-0.6-0.4-1.1-0.9-1.1s-1.1,0.4-1.1,0.9
		c0,0,0,0,0,0.1c-0.3,4.2-0.5,6.3-1.9,8.3C237.5,255.9,237.6,256.6,238.1,256.9z"/>
	<path class="st2" d="M269.9,245.4c0.1,0.5,0.5,0.8,1,0.8c0.1,0,0.1,0,0.2,0c0.6-0.1,0.9-0.7,0.8-1.2c0-0.2-0.1-0.4-0.1-0.6
		c-0.1-0.6-0.7-0.9-1.2-0.8c-0.6,0.1-0.9,0.7-0.8,1.2c0,0,0,0,0,0C269.8,245.1,269.9,245.3,269.9,245.4z"/>
	<path class="st2" d="M276.5,257.9c-3-2.5-3.7-5-4.1-9.9c0-0.6-0.6-1-1.1-0.9c-0.6,0-1,0.6-0.9,1.1c0.5,5.3,1.3,8.4,4.9,11.4
		c0.4,0.4,1.1,0.3,1.5-0.1C277,258.9,276.9,258.3,276.5,257.9C276.5,257.9,276.5,257.9,276.5,257.9L276.5,257.9z"/>
	<path class="st2" d="M274.2,261.7C274.1,261.7,274.1,261.6,274.2,261.7c-0.3-0.5-0.6-0.9-1-1.1c-2.8-1.6-4.5-6-5.1-13.1
		c-0.4-5.2-4-9.5-9-10.9c1.1-1.7,0.6-4-1.1-5c-1.7-1.1-4-0.6-5,1.1c-0.8,1.2-0.8,2.7,0,3.9c-5,1.3-8.6,5.7-9,10.9
		c-0.5,7.1-2.2,11.5-5.1,13.1c-0.9,0.7-1.5,1.7-1.5,2.9c-0.1,0.9-0.2,2.9,0.6,3.6c0.2,0.2,0.5,0.3,0.7,0.3h11.1
		c0.6,3.5,3.8,5.8,7.3,5.2c2.7-0.4,4.8-2.5,5.2-5.2h11.1c0.3,0,0.5-0.1,0.7-0.3c0.7-0.7,0.7-2.7,0.6-3.6
		C274.6,262.9,274.4,262.2,274.2,261.7z M256,233.1c0.9,0,1.6,0.7,1.6,1.6s-0.7,1.6-1.6,1.6c-0.9,0-1.6-0.7-1.6-1.6c0,0,0,0,0,0
		C254.4,233.8,255.1,233.1,256,233.1z M256,270.6c-2,0-3.7-1.3-4.1-3.2h8.3C259.7,269.3,258,270.6,256,270.6z M272.6,265.3h-33.2
		c-0.1-0.5-0.1-0.9,0-1.4c0.1-0.9,0.4-1.4,0.5-1.5c3.5-2,5.5-6.8,6.1-14.8c0.4-5.5,5.2-9.7,10.7-9.3c5,0.3,9,4.3,9.3,9.3
		c0.2,3.2,0.8,6.3,1.9,9.3H264c-0.6,0-1.1,0.4-1.1,1c0,0.6,0.4,1.1,1,1.1c0,0,0,0,0.1,0h4.9c0.4,0.8,1,1.5,1.6,2.1h-10.4
		c-0.6,0-1,0.5-1,1c0,0.6,0.5,1,1,1h12.4c0.1,0.2,0.1,0.5,0.1,0.7C272.7,264.4,272.7,264.8,272.6,265.3L272.6,265.3z"/>
	<path class="st2" d="M266.4,278.9h-20.8c-0.6,0-1,0.5-1,1c0,0.6,0.5,1,1,1h20.8c0.6,0,1.1-0.4,1.1-1
		C267.5,279.4,267.1,278.9,266.4,278.9C266.5,278.9,266.4,278.9,266.4,278.9L266.4,278.9z"/>
	<path class="st2" d="M256.3,261.1h-0.6c-0.6,0-1,0.5-1,1c0,0.6,0.5,1,1,1h0.6c0.6,0,1-0.5,1-1C257.4,261.6,256.9,261.1,256.3,261.1
		z"/>
</g>
</svg>
