<?xml version="1.0" encoding="utf-8"?>
<!-- Generator: Adobe Illustrator 23.0.3, SVG Export Plug-In . SVG Version: 6.00 Build 0)  -->
<svg version="1.1" id="Layer_1" xmlns="http://www.w3.org/2000/svg" xmlns:xlink="http://www.w3.org/1999/xlink" x="0px" y="0px"
	 viewBox="0 0 50 50" style="enable-background:new 0 0 50 50;" xml:space="preserve">
<style type="text/css">
	.st0{fill:#F39500;}
	.st1{fill:#FFFFFF;}
</style>
<g transform="translate(-172.818 -172.818)">
	<circle class="st0" cx="197.8" cy="197.8" r="25"/>
	<path class="st0" d="M221.9,214l-0.4,7.5l-7.5,0.4l-19.4-19.4c3.5-1.5,6.4-4.3,7.9-7.9l2.5,2.5l-0.5,3.8l5.3,0.9l1.2,5.5l6.2,2
		l-0.6,3.8L221.9,214z"/>
	<circle class="st1" cx="188.8" cy="188.8" r="14.9"/>
	<path class="st1" d="M217.4,212.4l0.6-3.7l-6.5-2l-1.2-5.6l-5.2-0.9l0.5-3.4l-2.5-2.6c0.7-1.8,1-3.7,1-5.6c0-8.7-7-15.7-15.7-15.7
		s-15.7,7-15.7,15.7s7,15.7,15.7,15.7c0,0,0,0,0,0c2,0,3.9-0.4,5.8-1.1l0,0l19.3,19.3l8.6-0.4l0.4-8.9L217.4,212.4z M174.5,188.8
		c0-7.8,6.3-14.1,14.1-14.1s14.1,6.3,14.1,14.1s-6.3,14.1-14.1,14.1c0,0,0,0,0,0C180.8,202.9,174.5,196.6,174.5,188.8z M195.9,202.7
		c0.7-0.4,1.4-0.9,2.1-1.3l19.6,19.5l-3.3,0.2L195.9,202.7z M220.8,220.8h-1.1l-20.5-20.5c1.4-1.3,2.6-2.8,3.4-4.5l1.5,1.5l-0.6,4.1
		l5.6,1l1.2,5.5l6,1.9l-0.6,3.8l5.4,0.9L220.8,220.8z"/>
	<path class="st0" d="M188.8,177.1c-6.5,0-11.7,5.2-11.7,11.7s5.2,11.7,11.7,11.7s11.7-5.2,11.7-11.7c0,0,0,0,0,0
		C200.4,182.3,195.2,177.1,188.8,177.1C188.8,177.1,188.8,177.1,188.8,177.1z M184.8,187c-1.4,0-2.5-1.1-2.5-2.5
		c0-1.4,1.1-2.5,2.5-2.5c1.4,0,2.5,1.1,2.5,2.5c0,0,0,0,0,0C187.3,185.9,186.2,187,184.8,187C184.8,187,184.8,187,184.8,187
		L184.8,187z"/>
	
		<rect x="189.9" y="195.2" transform="matrix(0.7072 -0.7071 0.7071 0.7072 -82.7572 192.2382)" class="st1" width="1.6" height="1.6"/>
	
		<rect x="192.6" y="192.6" transform="matrix(0.7071 -0.7071 0.7071 0.7071 -80.1053 193.3928)" class="st1" width="1.6" height="1.6"/>
	
		<rect x="195.3" y="189.9" transform="matrix(0.7072 -0.707 0.707 0.7072 -77.431 194.4403)" class="st1" width="1.6" height="1.6"/>
</g>
</svg>
