<?xml version="1.0" encoding="utf-8"?>
<!-- Generator: Adobe Illustrator 23.0.3, SVG Export Plug-In . SVG Version: 6.00 Build 0)  -->
<svg version="1.1" id="Layer_1" xmlns="http://www.w3.org/2000/svg" xmlns:xlink="http://www.w3.org/1999/xlink" x="0px" y="0px"
	 viewBox="0 0 47.6 50" style="enable-background:new 0 0 47.6 50;" xml:space="preserve">
<style type="text/css">
	.st0{fill:#FFA02E;}
	.st1{fill:#E58800;}
	.st2{fill:#FFB56C;}
	.st3{fill:#FFC692;}
	.st4{fill:#FF9C43;}
</style>
<g transform="translate(-232.701 -231)">
	<path class="st0" d="M274.3,249.2v4.7L257.5,267c-0.6,0.5-1.5,0.5-2.1,0l-16.8-13.2v-4.7h-6v30.1c0,1,0.8,1.7,1.7,1.7c0,0,0,0,0,0
		h44.1c1,0,1.7-0.8,1.7-1.7l0,0v-30.1H274.3z"/>
	<path class="st1" d="M235.6,279.3v-30.1h-2.9v30.1c0,1,0.8,1.7,1.7,1.7c0,0,0,0,0,0h2.9C236.4,281,235.6,280.2,235.6,279.3z"/>
	<path class="st0" d="M274.3,249.2v-4.7l6,4.7H274.3z"/>
	<path class="st0" d="M238.7,249.2h-6l6-4.7L238.7,249.2z"/>
	<path class="st1" d="M238.7,244.5l-6,4.7h2.9l3.1-2.4V244.5z"/>
	<path class="st2" d="M238.7,249.2h-6l6,4.7L238.7,249.2z"/>
	<path class="st0" d="M235.6,249.2h-2.9l2.9,2.3L235.6,249.2z"/>
	<path class="st2" d="M274.3,249.2v4.7l6-4.7H274.3z"/>
	<path class="st2" d="M257.5,267c-0.6,0.5-1.5,0.5-2.1,0l-3.6-2.8l-19.2,15c0,1,0.8,1.7,1.7,1.7c0,0,0,0,0,0h44.1
		c1,0,1.7-0.8,1.7-1.7l0,0l-19.2-15L257.5,267z"/>
	<path class="st0" d="M237.4,281c-1,0-1.7-0.8-1.7-1.7V277l-2.9,2.3c0,1,0.8,1.7,1.7,1.7H237.4z"/>
	<path class="st3" d="M255.4,267c0.6,0.5,1.5,0.5,2.1,0l16.9-13.3v-21.4c0-0.7-0.6-1.3-1.3-1.3h-33.2c-0.7,0-1.3,0.6-1.3,1.3v21.4
		L255.4,267z"/>
	<path class="st4" d="M241.5,232.2c0-0.5,0.2-0.9,0.6-1.2h-2.3c-0.7,0-1.3,0.6-1.3,1.3v21.4l3,2.4L241.5,232.2L241.5,232.2z"/>
	<path class="st1" d="M256.6,241.1c-0.4,0-0.7-0.3-0.8-0.7c0,0,0,0,0,0v-3c0-0.4,0.3-0.8,0.8-0.8s0.8,0.3,0.8,0.8v3
		C257.3,240.7,257,241.1,256.6,241.1C256.6,241.1,256.6,241.1,256.6,241.1z"/>
	<path class="st2" d="M261.3,244.8v-0.6c0-2.6-2.1-4.8-4.7-4.9c-2.6,0-4.8,2.1-4.9,4.7c0,0,0,0.1,0,0.1v0.7c0,2.8-1.1,5.5-3.1,7.4
		h15.7C262.4,250.3,261.3,247.6,261.3,244.8z"/>
	<path class="st0" d="M254.7,244.8v-0.7c0-2.1,1.3-3.9,3.3-4.5c-0.5-0.2-0.9-0.2-1.4-0.2c-2.6,0-4.8,2.1-4.9,4.7c0,0,0,0.1,0,0.1
		v0.7c0,2.8-1.1,5.5-3.1,7.4h3C253.6,250.3,254.7,247.6,254.7,244.8z"/>
	<path class="st2" d="M253.6,255.2c0,1.6,1.4,2.9,3,2.9c1.6,0,2.8-1.3,2.9-2.9H253.6z"/>
	<path class="st0" d="M256.6,255.2h-2.9c0,1.6,1.4,2.9,3,2.9c0.5,0,1-0.1,1.4-0.4C257.1,257.2,256.6,256.3,256.6,255.2z"/>
	<path class="st2" d="M264.5,252.1h-16.1c-0.7,0-1.2,0.6-1.2,1.2v0.9c0,0.7,0.6,1.2,1.2,1.2h16.1c0.7,0,1.2-0.6,1.2-1.2v-0.9
		C265.7,252.6,265.2,252.1,264.5,252.1z"/>
	<path class="st0" d="M264.5,253.2h-16.1c-0.4,0-0.8-0.2-1-0.6c-0.1,0.2-0.2,0.4-0.2,0.6v0.9c0,0.7,0.6,1.2,1.2,1.2h16.1
		c0.7,0,1.2-0.6,1.2-1.2v-0.9c0-0.2-0.1-0.4-0.2-0.6C265.3,253,264.9,253.2,264.5,253.2z"/>
</g>
</svg>
