<?xml version="1.0" encoding="utf-8"?>
<!-- Generator: Adobe Illustrator 23.0.3, SVG Export Plug-In . SVG Version: 6.00 Build 0)  -->
<svg version="1.1" id="Layer_1" xmlns="http://www.w3.org/2000/svg" xmlns:xlink="http://www.w3.org/1999/xlink" x="0px" y="0px"
	 viewBox="0 0 45.3 50" style="enable-background:new 0 0 45.3 50;" xml:space="preserve">
<style type="text/css">
	.st0{fill:#FCB47E;}
	.st1{fill:#4296D9;}
	.st2{fill:#FFA92C;}
	.st3{fill:#E58800;}
	.st4{fill:#FFB56C;}
	.st5{fill:#FFDCAD;}
	.st6{fill:#FFFFFF;}
	.st7{fill:#5C546A;}
	.st8{fill:#868491;}
</style>
<g transform="translate(-233.369 -231.022)">
	<rect x="250.5" y="261.5" class="st0" width="10.9" height="10.2"/>
	<path class="st1" d="M259.1,271.8c-0.9,0.7-2,1.1-3.1,1.4c-1.1-0.3-2.2-0.7-3.1-1.4c0,0-1.1-2.9-0.8-2.5s3.9,0,3.9,0l3.1,0.8
		L259.1,271.8z"/>
	<path class="st2" d="M265.4,265.4l8.1,1.4c3.1,1,5.2,3.9,5.2,7.1v5.1c-0.1,1.2-1.1,2.1-2.3,2.1h-40.6c-1.2,0.1-2.3-0.8-2.3-2.1
		v-5.1c0-3.3,2.1-6.2,5.2-7.1l8.1-1.4l9.4,3.9L265.4,265.4z"/>
	<path class="st3" d="M243,266C243,266,243,266.1,243,266c6,9.7,11.7,10.9,12.4,11l0.5,0.1c0.1,0,0.2,0,0.3,0l0.5-0.1
		c0.6-0.1,6.4-1.4,12.4-11c0,0,0,0,0-0.1l-3.7-0.6l-9.4,3.9l-9.4-3.9L243,266z"/>
	<path class="st4" d="M249,261.5l-2.9,3.9l4.8,7c0.2,0.4,0.7,0.5,1.1,0.2c0,0,0.1-0.1,0.1-0.1l4-3.2L249,261.5z"/>
	<path class="st4" d="M263.1,261.5l2.9,3.9l-4.8,7c-0.2,0.4-0.7,0.5-1.1,0.2c0,0-0.1-0.1-0.1-0.1l-4-3.2L263.1,261.5z"/>
	<path class="st5" d="M267,248.1l-1.6-3.8c0,0-6.8-3.8-18-2.3h0c-2.1,2.7-3.2,6-3.1,9.4c0,7.8,5.2,14.1,11.7,14.1
		c6.5,0,11.7-6.3,11.7-14.1c0-1.2-0.1-2.4-0.4-3.6C267.1,247.9,267,248.1,267,248.1z"/>
	<circle class="st4" cx="251.3" cy="251.3" r="3.1"/>
	<path class="st6" d="M251.3,248.2c-0.8,0-1.6,0.3-2.2,0.9l4.4,4.4c1.2-1.2,1.2-3.2,0-4.4C252.9,248.5,252.1,248.2,251.3,248.2
		L251.3,248.2z"/>
	<circle class="st4" cx="260.7" cy="251.3" r="3.1"/>
	<path class="st6" d="M260.7,248.2c-0.8,0-1.6,0.3-2.2,0.9l4.4,4.4c1.2-1.2,1.2-3.2,0-4.4C262.3,248.5,261.5,248.2,260.7,248.2
		L260.7,248.2z"/>
	<path class="st3" d="M268.5,233.1c-0.1-0.3-0.5-0.5-0.8-0.5c-2.3,0.1-4.6-0.1-6.8-0.7c-4.2-0.8-8.6-1.7-12,0.7c-0.1,0-0.1,0-0.2,0
		c-3.5,0-5.9,2.9-5.9,7c0,3.4,1.5,9.8,1.6,10.1c0.1,0.3,0.4,0.6,0.7,0.6h0c0.3,0,0.6-0.2,0.7-0.5l2.2-7.1c9.3-1.1,15.5,1.6,16.8,2.2
		l1.5,3.5c0.1,0.3,0.4,0.5,0.8,0.5c0.3,0,0.6-0.2,0.7-0.5C270.1,241,269.2,234.8,268.5,233.1z"/>
	<path class="st7" d="M257.6,252.1c-0.4,0-0.8-0.4-0.8-0.8c0-0.4-0.3-0.8-0.8-0.8c-0.4,0-0.8,0.3-0.8,0.8c0,0,0,0,0,0
		c0,0.4-0.3,0.8-0.8,0.8c-0.4,0-0.8-0.3-0.8-0.8c0,0,0,0,0-0.1c0-1.3,1.1-2.3,2.3-2.3c1.3,0,2.3,1,2.3,2.3
		C258.4,251.8,258,252.1,257.6,252.1z"/>
	<path class="st7" d="M248.2,251.3h-3.9c-0.4,0-0.8-0.4-0.8-0.8c0-0.4,0.3-0.8,0.8-0.8h3.9c0.4,0,0.8,0.4,0.8,0.8
		C249,251,248.6,251.3,248.2,251.3z"/>
	<path class="st7" d="M267.7,251.3h-3.9c-0.4,0-0.8-0.4-0.8-0.8c0-0.4,0.3-0.8,0.8-0.8h3.9c0.4,0,0.8,0.3,0.8,0.8
		C268.5,251,268.2,251.3,267.7,251.3C267.7,251.3,267.7,251.3,267.7,251.3z"/>
	<path class="st8" d="M251.3,255.2c-2.2,0-3.9-1.7-3.9-3.9c0-2.2,1.7-3.9,3.9-3.9c2.2,0,3.9,1.7,3.9,3.9
		C255.2,253.5,253.5,255.2,251.3,255.2z M251.3,249c-1.3,0-2.3,1-2.3,2.3s1,2.3,2.3,2.3c1.3,0,2.3-1,2.3-2.3
		C253.7,250,252.6,249,251.3,249z"/>
	<path class="st8" d="M260.7,255.2c-2.2,0-3.9-1.7-3.9-3.9s1.7-3.9,3.9-3.9c2.2,0,3.9,1.7,3.9,3.9
		C264.6,253.5,262.9,255.2,260.7,255.2z M260.7,249c-1.3,0-2.3,1-2.3,2.3s1,2.3,2.3,2.3c1.3,0,2.3-1,2.3-2.3
		C263.1,250,262,249,260.7,249z"/>
	<path class="st3" d="M241.2,281v-5.2c0-1.9-0.7-3.7-2.1-5l-2.9-2.9c-0.4,0.3-0.8,0.7-1.1,1.1l2.9,2.9c1,1,1.6,2.4,1.6,3.9v5.2
		L241.2,281z"/>
	<path class="st3" d="M275.8,267.9l-2.9,2.9c-1.3,1.3-2.1,3.1-2.1,5v5.2h1.6v-5.2c0-1.5,0.6-2.8,1.6-3.9l2.9-2.9
		C276.6,268.6,276.2,268.3,275.8,267.9z"/>
</g>
</svg>
