<?xml version="1.0" encoding="utf-8"?>
<!-- Generator: Adobe Illustrator 23.0.3, SVG Export Plug-In . SVG Version: 6.00 Build 0)  -->
<svg version="1.1" id="Layer_1" xmlns="http://www.w3.org/2000/svg" xmlns:xlink="http://www.w3.org/1999/xlink" x="0px" y="0px"
	 viewBox="0 0 49.9 50" style="enable-background:new 0 0 49.9 50;" xml:space="preserve">
<style type="text/css">
	.st0{fill:#FFA92C;}
	.st1{fill:#F39500;}
	.st2{fill:#F1F2F2;}
	.st3{fill:#FFC692;}
</style>
<g transform="translate(-204.74 -204.5)">
	<path class="st0" d="M221.3,204.5h16.5v45.2h-16.5V204.5z"/>
	<path class="st0" d="M204.7,204.5h16.5v45.2h-16.5V204.5z"/>
	<path class="st1" d="M237.8,209.7v28.6c0.5-0.2,0.8-0.6,0.9-1l1.7-5.4c0.3-0.9,1.3-1.4,2.2-1.1c0.5,0.2,0.9,0.6,1.1,1.1l1.7,5.4
		c0.2,0.7,0.9,1.2,1.7,1.2h3.6v-28.7H237.8z"/>
	<path class="st2" d="M211.7,212.3h19.1c0.5,0,0.9-0.4,0.9-0.9c0-0.5-0.4-0.9-0.9-0.9l0,0h-19.1c-0.5,0-0.9,0.4-0.9,0.9
		C210.8,211.9,211.2,212.3,211.7,212.3z"/>
	<path class="st2" d="M211.7,219.3h19.1c0.5,0,0.9-0.4,0.9-0.9c0-0.5-0.4-0.9-0.9-0.9l0,0h-19.1c-0.5,0-0.9,0.4-0.9,0.9
		C210.8,218.9,211.2,219.3,211.7,219.3z"/>
	<path class="st2" d="M211.7,226.2h19.1c0.5,0,0.9-0.4,0.9-0.9c0-0.5-0.4-0.9-0.9-0.9l0,0h-19.1c-0.5,0-0.9,0.4-0.9,0.9
		C210.8,225.9,211.2,226.2,211.7,226.2z"/>
	<path class="st2" d="M231.7,232.3c0-0.5-0.4-0.9-0.9-0.9h-19.1c-0.5,0-0.9,0.4-0.9,0.9c0,0.5,0.4,0.9,0.9,0.9h19.1
		C231.3,233.2,231.7,232.8,231.7,232.3C231.7,232.3,231.7,232.3,231.7,232.3z"/>
	<path class="st3" d="M245.5,237.2l-1.7-5.4c-0.3-0.9-1.3-1.4-2.2-1.1c-0.5,0.2-0.9,0.6-1.1,1.1l-1.7,5.4c-0.2,0.5-0.5,0.8-0.9,1
		c-0.2,0.1-0.5,0.2-0.7,0.2h-5.7c-1,0-1.7,0.8-1.7,1.7c0,0.6,0.3,1.1,0.7,1.4l4.6,3.3c0.6,0.4,0.9,1.2,0.6,1.9l-0.3,1.1l10.4-10.4
		C245.6,237.4,245.6,237.3,245.5,237.2z"/>
	<path class="st0" d="M252.9,238.4h-5.7c-0.6,0-1.2-0.4-1.5-0.9l-10.4,10.4l-0.6,1.8l-0.8,2.5c-0.3,0.9,0.2,1.9,1.1,2.2
		c0.5,0.2,1.1,0.1,1.6-0.2l4.6-3.3c0.6-0.4,1.4-0.4,2.1,0l4.6,3.3c0.8,0.6,1.9,0.4,2.4-0.4c0.3-0.5,0.4-1,0.2-1.6l-1.7-5.4
		c-0.2-0.7,0-1.5,0.6-1.9l4.6-3.3c0.8-0.6,1-1.7,0.4-2.4C253.9,238.7,253.4,238.4,252.9,238.4L252.9,238.4z"/>
	<path class="st2" d="M246.5,214.9c0-0.5-0.4-0.9-0.9-0.9h-7.8v1.7h7.8C246.1,215.8,246.5,215.4,246.5,214.9
		C246.5,214.9,246.5,214.9,246.5,214.9z"/>
	<path class="st2" d="M237.8,221h7.8c0.5,0,0.9-0.4,0.9-0.9c0-0.5-0.4-0.9-0.9-0.9l0,0h-7.8"/>
	<path class="st2" d="M245.6,226.2c0.5,0,0.9-0.4,0.9-0.9c0-0.5-0.4-0.9-0.9-0.9l0,0h-7.8v1.7H245.6z"/>
</g>
</svg>
