<?xml version="1.0" encoding="utf-8"?>
<!-- Generator: Adobe Illustrator 23.0.3, SVG Export Plug-In . SVG Version: 6.00 Build 0)  -->
<svg version="1.1" id="Layer_1" xmlns="http://www.w3.org/2000/svg" xmlns:xlink="http://www.w3.org/1999/xlink" x="0px" y="0px"
	 viewBox="0 0 50 50" style="enable-background:new 0 0 50 50;" xml:space="preserve">
<style type="text/css">
	.st0{fill:#FFB56C;}
	.st1{fill:#FFA02E;}
	.st2{fill:#E58800;}
</style>
<g transform="translate(-231 -231)">
	<path class="st0" d="M272.9,267.6c-0.5,0-0.9-0.4-0.9-0.9c0-0.3,0.1-0.5,0.3-0.7c8-6.6,9.2-18.4,2.6-26.4c-6.6-8-18.4-9.2-26.4-2.6
		c-1.3,1.1-2.5,2.3-3.4,3.7c-0.3,0.4-0.8,0.5-1.2,0.2s-0.5-0.8-0.2-1.2c6.5-9.3,19.3-11.5,28.6-5c9.3,6.5,11.5,19.3,5,28.6
		c-1.1,1.5-2.3,2.9-3.8,4.1C273.3,267.5,273.1,267.6,272.9,267.6z"/>
	<path class="st1" d="M273.4,271.8l-11.2-6.4c-1.1-0.6-2.4-0.4-3.3,0.4l-2.2,2.2c-0.8,0.8-2.2,0.9-3.1,0.2c-3.6-2.9-6.8-6.2-9.7-9.7
		c-0.7-0.9-0.7-2.3,0.2-3.1l2.2-2.2c0.9-0.9,1.1-2.2,0.4-3.3l-6.4-11.2c-0.8-1.3-2.5-1.8-3.8-1c-0.2,0.1-0.4,0.3-0.6,0.4l-3.3,3.3
		c-4.3,4.3,0.7,16.3,11.2,26.9s22.5,15.5,26.9,11.2l3.3-3.3c1.1-1.1,1.1-2.8,0-3.9C273.8,272.1,273.6,271.9,273.4,271.8z"/>
	<path class="st2" d="M234.9,239l9.3,16.1l2-2c0.9-0.9,1.1-2.2,0.4-3.3l-6.4-11.2c-0.8-1.3-2.5-1.8-3.8-1c-0.2,0.1-0.4,0.3-0.6,0.4
		L234.9,239z"/>
	<path class="st2" d="M273,277.1l0.9-0.9c1.1-1.1,1.1-2.8,0-3.9c-0.2-0.2-0.4-0.3-0.6-0.4l-11.2-6.4c-1.1-0.6-2.4-0.4-3.3,0.4l-2,2
		L273,277.1z"/>
	<path class="st2" d="M270.3,253.3h-0.9v-8.9c0-0.5-0.4-0.9-0.9-0.9s-0.9,0.4-0.9,0.9v8.9h-4.3l1.6-8.8c0.1-0.5-0.2-1-0.7-1.1
		c-0.5-0.1-1,0.2-1.1,0.7c0,0,0,0,0,0l-1.8,9.8c-0.1,0.5,0.2,1,0.7,1c0.1,0,0.1,0,0.2,0h5.4v1.8c0,0.5,0.4,0.9,0.9,0.9
		s0.9-0.4,0.9-0.9c0,0,0,0,0-0.1v-1.8h0.9c0.5,0,0.9-0.4,0.9-0.9C271.2,253.7,270.8,253.3,270.3,253.3
		C270.3,253.3,270.3,253.3,270.3,253.3z"/>
	<path class="st2" d="M259.6,257.8h-7.1c-0.5,0-0.9-0.4-0.9-0.9l0,0c0-2.7,2.1-3.9,3.9-5c1.7-1,3.2-1.9,3.2-3.9
		c0-1.5-1.1-2.7-2.6-2.7c-1.5,0-2.7,1.1-2.7,2.6c0,0,0,0.1,0,0.1c0,0.5-0.4,0.9-0.9,0.9s-0.9-0.4-0.9-0.9c0,0,0,0,0,0
		c0-2.5,2-4.5,4.5-4.5c2.5,0,4.5,2,4.5,4.5c0,3-2.3,4.4-4.1,5.4c-1.5,0.9-2.5,1.5-2.9,2.6h6.1c0.5,0,0.9,0.4,0.9,0.9
		S260.1,257.8,259.6,257.8L259.6,257.8z"/>
	<path class="st0" d="M272.1,268.5c-0.5,0-0.9-0.4-0.9-0.9c0-0.1,0-0.1,0-0.2l0.9-4.5c0.1-0.5,0.6-0.8,1.1-0.7
		c0.5,0.1,0.8,0.6,0.7,1l-0.6,3.2l3.2-0.6c0.5-0.1,1,0.2,1,0.7c0.1,0.5-0.2,0.9-0.7,1l-4.5,0.9C272.2,268.5,272.1,268.5,272.1,268.5
		z"/>
	<path class="st2" d="M260.5,238.1c-0.5,0-0.9-0.4-0.9-0.9c0,0,0,0,0,0v-1.8c0-0.5,0.4-0.9,0.9-0.9s0.9,0.4,0.9,0.9v1.8
		C261.4,237.7,261,238.1,260.5,238.1L260.5,238.1z"/>
	<path class="st2" d="M276.5,252.4h-1.8c-0.5,0-0.9-0.4-0.9-0.9c0-0.5,0.4-0.9,0.9-0.9c0,0,0,0,0,0h1.8c0.5,0,0.9,0.4,0.9,0.9
		C277.4,252,277,252.4,276.5,252.4C276.5,252.4,276.5,252.4,276.5,252.4z"/>
	<path class="st1" d="M268.1,239.3c-0.5,0-0.9-0.4-0.9-0.9c0-0.2,0-0.3,0.1-0.4l0.4-0.8c0.3-0.4,0.8-0.6,1.2-0.3
		c0.4,0.2,0.5,0.8,0.3,1.2l-0.4,0.8C268.7,239.1,268.4,239.3,268.1,239.3z"/>
	<path class="st1" d="M252.9,239.3c-0.3,0-0.6-0.2-0.8-0.4l-0.4-0.8c-0.2-0.4-0.1-1,0.4-1.2c0.4-0.2,0.9-0.1,1.2,0.3l0.4,0.8
		c0.2,0.4,0.1,1-0.3,1.2C253.2,239.2,253,239.3,252.9,239.3L252.9,239.3z"/>
	<path class="st1" d="M247.3,244.8c-0.2,0-0.3,0-0.4-0.1l-0.8-0.4c-0.4-0.2-0.6-0.8-0.3-1.2s0.8-0.6,1.2-0.3l0.8,0.4
		c0.4,0.2,0.6,0.8,0.3,1.2C247.9,244.7,247.6,244.8,247.3,244.8L247.3,244.8z"/>
	<path class="st1" d="M274.4,260.5c-0.2,0-0.3,0-0.4-0.1l-0.8-0.4c-0.4-0.3-0.6-0.8-0.3-1.2c0.2-0.4,0.8-0.6,1.2-0.3l0.8,0.4
		c0.4,0.2,0.6,0.8,0.3,1.2C275,260.3,274.7,260.5,274.4,260.5L274.4,260.5z"/>
	<path class="st1" d="M273.6,244.8c-0.5,0-0.9-0.4-0.9-0.9c0-0.3,0.2-0.6,0.4-0.8l0.8-0.4c0.4-0.2,1-0.1,1.2,0.3s0.1,1-0.3,1.2
		l-0.8,0.4C273.9,244.8,273.8,244.8,273.6,244.8z"/>
</g>
</svg>
