<?xml version="1.0" encoding="utf-8"?>
<!-- Generator: Adobe Illustrator 23.0.3, SVG Export Plug-In . SVG Version: 6.00 Build 0)  -->
<svg version="1.1" id="Layer_1" xmlns="http://www.w3.org/2000/svg" xmlns:xlink="http://www.w3.org/1999/xlink" x="0px" y="0px"
	 viewBox="0 0 49.2 50" style="enable-background:new 0 0 49.2 50;" xml:space="preserve">
<style type="text/css">
	.st0{fill:#FFA92C;}
	.st1{fill:#FFA227;}
	.st2{fill:#F7F8F8;}
	.st3{fill:#FAFAFA;}
	.st4{fill:#E6E7E8;}
	.st5{fill:#E58800;}
	.st6{fill:#FFB56C;}
	.st7{fill:#F1F2F2;}
	.st8{fill:#F6F6F6;}
</style>
<g transform="translate(-211.424 -211)">
	<path class="st0" d="M211.4,216.9c0,3.3,5.9,11,5.9,11V211C214.1,211,211.4,213.7,211.4,216.9L211.4,216.9z"/>
	<path class="st1" d="M217.4,211v16.9c0,0,5.9-7.7,5.9-11C223.3,213.7,220.6,211,217.4,211L217.4,211z"/>
	<path class="st0" d="M260.6,251.7c0,5.1-4.2,9.3-9.3,9.3c-5.1,0-9.3-4.2-9.3-9.3c0-5.1,4.2-9.3,9.3-9.3S260.6,246.5,260.6,251.7
		L260.6,251.7z"/>
	<path class="st2" d="M251.3,244.9c-3.7,0-6.8,3-6.8,6.8c0,1.4,0.4,2.7,1.2,3.9l9.4-9.4C254,245.3,252.6,244.9,251.3,244.9z"/>
	<path class="st3" d="M255.1,246.1l-9.4,9.4c2.1,3.1,6.4,3.9,9.4,1.7c3.1-2.1,3.9-6.4,1.7-9.4C256.4,247.2,255.8,246.6,255.1,246.1z
		"/>
	<path class="st4" d="M239.4,257.6h-19.5c-4.7,0-8.5-3.8-8.5-8.5v-6.8c0-4.7,3.8-8.5,8.5-8.5c0,0,0,0,0,0h30.5
		c2.8,0,5.1-2.3,5.1-5.1v-3.4c0-2.8-2.3-5.1-5.1-5.1h0H225v-5.1h26.3c5.1,0,9.3,4.2,9.3,9.3v5.9c0,4.7-3.8,8.5-8.5,8.5h-30.5
		c-2.8,0-5.1,2.3-5.1,5.1v0v3.4c0,2.8,2.3,5.1,5.1,5.1h17.8L239.4,257.6z"/>
	<path class="st5" d="M252.1,252.2v-4.7c0-0.5-0.4-0.8-0.9-0.8c-0.5,0-0.8,0.4-0.8,0.8v5.1c0,0.2,0.1,0.4,0.2,0.6l2.5,2.5
		c0.3,0.3,0.9,0.3,1.2,0s0.3-0.9,0-1.2l0,0L252.1,252.2z"/>
	<path class="st6" d="M258.9,224.6c0-0.5,0-1-0.1-1.5c-0.1-0.5-0.5-0.8-1-0.7s-0.8,0.5-0.7,1c0.1,0.4,0.1,0.8,0.1,1.2v0.4
		c0,0.5,0.4,0.9,0.9,0.9s0.9-0.4,0.9-0.9L258.9,224.6z"/>
	<path class="st6" d="M256.9,231.4c-0.1,0.5-0.4,0.9-0.6,1.3c-0.2,0.4-0.1,0.9,0.3,1.2c0.4,0.2,0.9,0.1,1.1-0.3
		c0.3-0.5,0.6-1.1,0.8-1.7c0.2-0.4-0.1-0.9-0.5-1.1S257.1,230.9,256.9,231.4C256.9,231.4,256.9,231.4,256.9,231.4L256.9,231.4z"/>
	<path class="st6" d="M258.9,229.2v-1.7c0-0.5-0.4-0.9-0.9-0.9s-0.9,0.4-0.9,0.9l0,0v1.7c0,0.5,0.4,0.9,0.9,0.9
		S258.9,229.6,258.9,229.2z"/>
	<path class="st6" d="M253.4,219c0.1,0,0.2,0.1,0.3,0.1c0.5,0,0.8-0.4,0.9-0.8c0-0.3-0.2-0.7-0.5-0.8c-0.6-0.2-1.2-0.4-1.8-0.5
		c-0.5-0.1-0.9,0.2-1,0.7c-0.1,0.5,0.2,0.9,0.7,1c0,0,0,0,0.1,0C252.5,218.7,253,218.9,253.4,219z"/>
	<path class="st6" d="M256.5,219c-0.3-0.3-0.9-0.3-1.2,0c-0.3,0.3-0.3,0.9,0,1.2c0.4,0.3,0.7,0.7,1,1.1c0.2,0.4,0.8,0.5,1.2,0.3
		c0.4-0.2,0.5-0.8,0.3-1.2c0,0,0,0,0,0C257.3,219.9,256.9,219.4,256.5,219z"/>
	<path class="st6" d="M254.8,234.4c-0.4,0.3-0.8,0.5-1.3,0.7c-0.4,0.2-0.6,0.7-0.5,1.1s0.7,0.6,1.1,0.5c0.6-0.2,1.1-0.6,1.7-0.9
		c0.4-0.3,0.5-0.8,0.2-1.2C255.8,234.2,255.2,234.1,254.8,234.4C254.8,234.4,254.8,234.4,254.8,234.4z"/>
	<path class="st6" d="M226.7,218.6h1.7c0.5,0,0.8-0.4,0.8-0.8s-0.4-0.8-0.8-0.8h-1.7c-0.5,0-0.8,0.4-0.8,0.8
		S226.2,218.6,226.7,218.6z"/>
	<path class="st6" d="M232.6,218.6c0.5,0,0.8-0.4,0.8-0.8s-0.4-0.8-0.8-0.8l0,0h-1.7c-0.5,0-0.8,0.4-0.8,0.8s0.4,0.8,0.8,0.8H232.6z
		"/>
	<path class="st6" d="M236.8,218.6c0.5,0,0.8-0.4,0.8-0.8s-0.4-0.8-0.8-0.8h-1.7c-0.5,0-0.8,0.4-0.8,0.8s0.4,0.8,0.8,0.8H236.8z"/>
	<path class="st6" d="M251.4,235.6h-1.7c-0.5,0-0.8,0.4-0.8,0.8s0.4,0.8,0.8,0.8h1.7c0.5,0,0.8-0.4,0.8-0.9
		C252.2,235.9,251.8,235.6,251.4,235.6L251.4,235.6z"/>
	<path class="st6" d="M241.1,218.6c0.5,0,0.8-0.4,0.8-0.8s-0.4-0.8-0.8-0.8h-1.7c-0.5,0-0.8,0.4-0.8,0.8s0.4,0.8,0.8,0.8l0,0H241.1z
		"/>
	<path class="st6" d="M249.6,218.6c0.5,0,0.8-0.4,0.8-0.8s-0.4-0.8-0.8-0.8l0,0h-1.7c-0.5,0-0.8,0.4-0.8,0.8s0.4,0.8,0.8,0.8H249.6z
		"/>
	<path class="st6" d="M245.3,218.6c0.5,0,0.8-0.4,0.8-0.8s-0.4-0.8-0.8-0.8h-1.7c-0.5,0-0.8,0.4-0.8,0.8s0.4,0.8,0.8,0.8H245.3z"/>
	<path class="st6" d="M229,255.9c0.5,0,0.8-0.4,0.8-0.8s-0.4-0.8-0.8-0.8l0,0h-1.7c-0.5,0-0.8,0.4-0.8,0.8s0.4,0.8,0.8,0.8l0,0H229z
		"/>
	<path class="st6" d="M220.5,255.9L220.5,255.9c0.5,0,0.9-0.4,0.9-0.8s-0.4-0.9-0.8-0.9l0,0c-0.5,0-1-0.1-1.5-0.2
		c-0.5-0.1-0.9,0.1-1,0.6c-0.1,0.4,0.1,0.9,0.6,1C219.2,255.8,219.8,255.9,220.5,255.9z"/>
	<path class="st6" d="M216.1,254.3c0.4,0.3,0.9,0.2,1.2-0.2c0.3-0.4,0.2-0.9-0.1-1.2c-0.4-0.3-0.7-0.7-1-1c-0.3-0.4-0.8-0.5-1.2-0.3
		s-0.5,0.8-0.3,1.2c0,0,0.1,0.1,0.1,0.1C215.1,253.5,215.6,253.9,216.1,254.3z"/>
	<path class="st6" d="M216.8,238.8c0.4-0.3,0.8-0.6,1.2-0.8c0.4-0.2,0.6-0.7,0.4-1.1s-0.7-0.6-1.1-0.4c0,0,0,0,0,0
		c-0.6,0.3-1.1,0.7-1.6,1.1c-0.3,0.3-0.4,0.9-0.1,1.2C215.9,239.1,216.4,239.1,216.8,238.8L216.8,238.8z"/>
	<path class="st6" d="M214.2,251c0.1,0,0.2,0,0.2,0c0.4-0.1,0.7-0.6,0.6-1.1c-0.1-0.5-0.2-1-0.2-1.5c0-0.5-0.4-0.8-0.8-0.8
		c0,0,0,0,0,0c-0.5,0-0.8,0.4-0.8,0.9c0,0.6,0.1,1.3,0.3,1.9C213.5,250.8,213.9,251,214.2,251z"/>
	<path class="st6" d="M233.2,255.9c0.5,0,0.8-0.4,0.8-0.8s-0.4-0.8-0.8-0.8h-1.7c-0.5,0-0.8,0.4-0.8,0.8s0.4,0.8,0.8,0.8H233.2z"/>
	<path class="st6" d="M245.4,235.6c-0.5,0-0.8,0.4-0.8,0.8s0.4,0.8,0.8,0.8h1.7c0.5,0,0.8-0.4,0.8-0.8s-0.4-0.8-0.8-0.8H245.4z"/>
	<path class="st6" d="M213.9,242.6c0.1,0,0.1,0,0.2,0c0.4,0,0.7-0.3,0.8-0.7c0.1-0.5,0.3-1,0.5-1.4c0.2-0.4,0-0.9-0.4-1.1
		c-0.4-0.2-0.9,0-1.1,0.4c-0.3,0.6-0.5,1.2-0.6,1.8C213.2,242,213.5,242.5,213.9,242.6C213.9,242.6,213.9,242.6,213.9,242.6
		L213.9,242.6z"/>
	<path class="st6" d="M224.7,255.9c0.5,0,0.8-0.4,0.8-0.8s-0.4-0.8-0.8-0.8H223c-0.5,0-0.8,0.4-0.8,0.8s0.4,0.8,0.8,0.8l0,0H224.7z"
		/>
	<path class="st6" d="M237.5,255.9c0.5,0,0.8-0.4,0.8-0.8s-0.4-0.8-0.8-0.8h-1.7c-0.5,0-0.8,0.4-0.8,0.8s0.4,0.8,0.8,0.8H237.5z"/>
	<path class="st6" d="M232.7,235.6c-0.5,0-0.8,0.4-0.8,0.8s0.4,0.8,0.8,0.8l0,0h1.7c0.5,0,0.8-0.4,0.8-0.8s-0.4-0.8-0.8-0.8l0,0
		H232.7z"/>
	<path class="st6" d="M237,235.6c-0.5,0-0.8,0.4-0.8,0.8s0.4,0.8,0.8,0.8h1.7c0.5,0,0.8-0.4,0.8-0.8s-0.4-0.8-0.8-0.8H237z"/>
	<path class="st6" d="M241.2,235.6c-0.5,0-0.8,0.4-0.8,0.8s0.4,0.8,0.8,0.8l0,0h1.7c0.5,0,0.8-0.4,0.8-0.8s-0.4-0.8-0.8-0.8H241.2z"
		/>
	<path class="st6" d="M213.1,246c0,0.5,0.4,0.8,0.8,0.8s0.8-0.4,0.8-0.8v-1.7c0-0.5-0.4-0.8-0.8-0.8s-0.8,0.4-0.8,0.8V246z"/>
	<path class="st6" d="M224.3,235.6c-0.5,0-0.8,0.4-0.8,0.8s0.4,0.8,0.8,0.8h1.7c0.5,0,0.8-0.4,0.8-0.8s-0.4-0.8-0.8-0.8H224.3z"/>
	<path class="st6" d="M220.7,235.6c-0.3,0-0.5,0-0.8,0c-0.5,0.1-0.8,0.5-0.7,0.9c0,0.4,0.4,0.7,0.8,0.7c0,0,0.1,0,0.1,0
		c0.2,0,0.4,0,0.6,0h1c0.5,0,0.8-0.4,0.8-0.8s-0.4-0.8-0.8-0.8L220.7,235.6z"/>
	<path class="st6" d="M228.5,235.6c-0.5,0-0.8,0.4-0.8,0.8s0.4,0.8,0.8,0.8h1.7c0.5,0,0.8-0.4,0.8-0.8s-0.4-0.8-0.8-0.8H228.5z"/>
	<path class="st7" d="M215.7,216.9c0,0.9,0.8,1.7,1.7,1.7v-3.4C216.4,215.2,215.7,216,215.7,216.9z"/>
	<path class="st8" d="M217.4,215.2v3.4c0.9,0,1.7-0.8,1.7-1.7C219,216,218.3,215.2,217.4,215.2z"/>
</g>
</svg>
