<?xml version="1.0" encoding="utf-8"?>
<!-- Generator: Adobe Illustrator 23.0.3, SVG Export Plug-In . SVG Version: 6.00 Build 0)  -->
<svg version="1.1" id="Layer_1" xmlns="http://www.w3.org/2000/svg" xmlns:xlink="http://www.w3.org/1999/xlink" x="0px" y="0px"
	 viewBox="0 0 50.8 50" style="enable-background:new 0 0 50.8 50;" xml:space="preserve">
<style type="text/css">
	.st0{fill:#FFB56C;}
	.st1{fill:#FFA02E;}
	.st2{fill:#E58800;}
</style>
<g transform="translate(-210.086 -210.344)">
	<path class="st0" d="M214.4,235.3c0,11.9,9.6,21.6,21.5,21.6c0,0,0,0,0,0v-43.1C224,213.8,214.4,223.4,214.4,235.3z"/>
	<path class="st0" d="M235.9,213.8v43.1c11.9,0.2,21.7-9.4,21.8-21.3c0.2-11.9-9.4-21.7-21.3-21.8
		C236.3,213.8,236.1,213.8,235.9,213.8L235.9,213.8z"/>
	<path class="st1" d="M235.9,210.3c-5,0-9.9,1.5-14.1,4.3l0,0l-4-4.3l-1.7,12.9l12.1-1.7l-4-4.3l0.1,0c10-6.4,23.3-3.5,29.8,6.5
		s3.5,23.3-6.5,29.8c-3.5,2.2-7.5,3.4-11.7,3.4c-0.6,0-1.2,0-1.9-0.1l-1.3,3.3c1.1,0.1,2.1,0.2,3.2,0.2c13.8,0,25-11.2,25-25
		S249.7,210.3,235.9,210.3L235.9,210.3z"/>
	<path class="st2" d="M212.2,240c-0.2-1.1-0.3-2.2-0.4-3.3c0-0.5-0.4-0.8-0.9-0.8s-0.8,0.4-0.8,0.9c0.1,1.2,0.2,2.4,0.4,3.5
		c0.1,0.4,0.4,0.7,0.8,0.7c0.1,0,0.1,0,0.2,0C212,240.9,212.3,240.4,212.2,240C212.2,240,212.2,240,212.2,240L212.2,240z"/>
	<path class="st2" d="M216.1,249.1c-0.3-0.4-0.8-0.5-1.2-0.2s-0.5,0.8-0.2,1.2c0.7,1,1.4,1.9,2.2,2.8c0.3,0.4,0.9,0.4,1.2,0.1
		s0.4-0.9,0.1-1.2C217.4,250.9,216.7,250,216.1,249.1z"/>
	<path class="st2" d="M210.9,234.1C211,234.1,211,234.1,210.9,234.1c0.5,0,0.9-0.3,0.9-0.8c0.1-1.1,0.3-2.2,0.5-3.3
		c0.1-0.5-0.2-0.9-0.6-1c-0.5-0.1-0.9,0.2-1,0.6c0,0,0,0,0,0c-0.3,1.2-0.4,2.3-0.5,3.5C210.1,233.7,210.5,234.1,210.9,234.1
		C210.9,234.1,210.9,234.1,210.9,234.1L210.9,234.1z"/>
	<path class="st2" d="M223.3,255.9c-0.9-0.6-1.8-1.2-2.7-1.9c-0.4-0.3-0.9-0.3-1.2,0.1c-0.3,0.4-0.3,0.9,0.1,1.2l0,0
		c0.9,0.8,1.9,1.5,2.9,2.1c0.4,0.3,0.9,0.2,1.2-0.2C223.8,256.7,223.7,256.2,223.3,255.9C223.3,255.9,223.3,255.9,223.3,255.9
		L223.3,255.9z"/>
	<path class="st2" d="M212.2,227.4c0.1,0,0.2,0.1,0.3,0.1c0.4,0,0.7-0.2,0.8-0.6c0.3-0.8,0.6-1.5,1-2.3c0.2-0.4,0-0.9-0.4-1.2
		c-0.4-0.2-0.9,0-1.2,0.4c-0.4,0.8-0.8,1.6-1.1,2.4C211.5,226.7,211.8,227.2,212.2,227.4C212.2,227.3,212.2,227.3,212.2,227.4z"/>
	<path class="st2" d="M213.1,243.2c-0.2-0.4-0.7-0.7-1.1-0.5c-0.4,0.2-0.7,0.6-0.5,1.1c0.4,1.1,0.9,2.2,1.4,3.3
		c0.2,0.4,0.7,0.6,1.2,0.4c0.4-0.2,0.6-0.7,0.4-1.2C213.9,245.2,213.4,244.2,213.1,243.2z"/>
	<path class="st2" d="M229.3,258.6c-1.1-0.3-2.1-0.7-3.1-1.1c-0.4-0.2-0.9,0-1.1,0.5c-0.2,0.4,0,0.9,0.4,1.1
		c1.1,0.5,2.2,0.9,3.4,1.2c0.1,0,0.2,0,0.2,0c0.5,0,0.9-0.4,0.9-0.9C230,259,229.7,258.7,229.3,258.6L229.3,258.6z"/>
	<path class="st2" d="M215,242.6c0.2,0.4,0.7,0.7,1.1,0.5s0.7-0.7,0.5-1.1c-0.4-1-0.8-2.1-1-3.1c-0.1-0.5-0.6-0.8-1-0.6
		c-0.5,0.1-0.7,0.6-0.6,1C214.2,240.3,214.5,241.5,215,242.6z"/>
	<path class="st2" d="M215.2,229.6c0.1,0,0.2,0,0.3,0c0.4,0,0.7-0.2,0.8-0.6c0.3-1.1,0.7-2.1,1.2-3.1c0.2-0.4,0-0.9-0.4-1.1
		c-0.4-0.2-0.9,0-1.1,0.4c-0.5,1.1-1,2.2-1.3,3.3C214.4,229,214.7,229.5,215.2,229.6C215.2,229.6,215.2,229.6,215.2,229.6
		L215.2,229.6z"/>
	<path class="st2" d="M215.2,235.5v-0.2c0-1,0.1-2.1,0.3-3.1c0.1-0.5-0.2-0.9-0.6-1c-0.5-0.1-0.9,0.2-1,0.6c0,0,0,0.1,0,0.1
		c-0.2,1.1-0.3,2.2-0.3,3.3v0.2c0,0.5,0.4,0.8,0.8,0.8c0,0,0,0,0,0C214.8,236.4,215.2,236,215.2,235.5z"/>
	<path class="st2" d="M224.8,252.2c-0.9-0.6-1.8-1.4-2.6-2.1c-0.4-0.3-0.9-0.3-1.2,0.1c-0.3,0.3-0.3,0.9,0,1.2
		c0.9,0.8,1.8,1.6,2.7,2.3c0.4,0.3,0.9,0.2,1.2-0.2C225.2,253,225.2,252.5,224.8,252.2L224.8,252.2z"/>
	<path class="st2" d="M230.7,255.2c-1.1-0.3-2.1-0.8-3.1-1.3c-0.4-0.2-0.9,0-1.2,0.4c-0.2,0.4,0,0.9,0.4,1.2c1.1,0.5,2.2,1,3.3,1.4
		c0.5,0.2,0.9-0.1,1.1-0.5C231.4,255.9,231.2,255.4,230.7,255.2C230.7,255.2,230.7,255.2,230.7,255.2L230.7,255.2z"/>
	<path class="st2" d="M219.8,248.9c0.4-0.3,0.4-0.8,0.1-1.2c-0.7-0.9-1.3-1.8-1.9-2.7c-0.2-0.4-0.7-0.6-1.2-0.4s-0.6,0.7-0.4,1.2
		c0,0,0,0,0,0.1c0.6,1,1.3,2,2,2.9C218.9,249.1,219.5,249.1,219.8,248.9C219.8,248.9,219.8,248.9,219.8,248.9L219.8,248.9z"/>
	<path class="st2" d="M235.9,219c-0.5,0-0.9,0.4-0.9,0.9c0,0,0,0,0,0v15.5c0,0.2,0.1,0.4,0.3,0.6l8.6,8.6c0.3,0.3,0.9,0.3,1.2,0
		c0.3-0.3,0.3-0.9,0-1.2l-8.4-8.4v-15.2C236.8,219.4,236.4,219,235.9,219C235.9,219,235.9,219,235.9,219z"/>
</g>
</svg>
