<?xml version="1.0" encoding="utf-8"?>
<!-- Generator: Adobe Illustrator 23.0.3, SVG Export Plug-In . SVG Version: 6.00 Build 0)  -->
<svg version="1.1" id="Layer_1" xmlns="http://www.w3.org/2000/svg" xmlns:xlink="http://www.w3.org/1999/xlink" x="0px" y="0px"
	 viewBox="0 0 49.2 50" style="enable-background:new 0 0 49.2 50;" xml:space="preserve">
<style type="text/css">
	.st0{fill:#FFB56C;}
	.st1{fill:#E58800;}
	.st2{fill:#FFA92C;}
</style>
<g transform="translate(-4.924 -4.5)">
	<path class="st0" d="M42.7,54.5c-0.5,0-0.8-0.4-0.8-0.8s0.4-0.8,0.8-0.8h1.6c0.5,0,0.9,0.4,0.9,0.8c0,0.5-0.3,0.8-0.8,0.8
		c0,0,0,0,0,0v-0.8l0,0.8L42.7,54.5z M39.3,54.5h-1.7c-0.5,0-0.8-0.4-0.8-0.8s0.4-0.8,0.8-0.8h1.7c0.5,0,0.8,0.4,0.8,0.8
		S39.8,54.5,39.3,54.5z M34.2,54.5h-1.7c-0.5,0-0.8-0.4-0.8-0.8s0.4-0.8,0.8-0.8h1.7c0.5,0,0.8,0.4,0.8,0.8S34.7,54.5,34.2,54.5
		L34.2,54.5z M29.1,54.5h-1.7c-0.5,0-0.8-0.4-0.8-0.8s0.4-0.8,0.8-0.8h1.7c0.5,0,0.8,0.4,0.8,0.8S29.6,54.5,29.1,54.5
		C29.1,54.5,29.1,54.5,29.1,54.5z M24.1,54.5h-1.7c-0.5,0-0.8-0.4-0.8-0.8s0.4-0.8,0.8-0.8h1.7c0.5,0,0.8,0.4,0.8,0.8
		S24.5,54.5,24.1,54.5z M19,54.5h-1.7c-0.5,0-0.8-0.4-0.8-0.8s0.4-0.8,0.8-0.8H19c0.5,0,0.8,0.4,0.8,0.8S19.4,54.5,19,54.5z
		 M47.3,53c-0.5,0-0.8-0.4-0.8-0.8c0-0.2,0.1-0.4,0.2-0.5c0.3-0.3,0.5-0.7,0.6-1.2c0.1-0.5,0.6-0.7,1-0.6s0.7,0.6,0.6,1
		c-0.2,0.7-0.5,1.3-0.9,1.9C47.8,52.9,47.6,53,47.3,53z M47.3,48.3c-0.3,0-0.5-0.1-0.7-0.3c-0.3-0.3-0.6-0.6-1-0.8
		c-0.4-0.2-0.6-0.7-0.4-1.1c0.2-0.4,0.7-0.6,1.1-0.4C47,46,47.6,46.4,48,47c0.3,0.4,0.2,0.9-0.1,1.2C47.7,48.3,47.5,48.3,47.3,48.3
		L47.3,48.3z M42.7,46.9H41c-0.5,0-0.8-0.4-0.8-0.8s0.4-0.8,0.8-0.8h1.7c0.5,0,0.8,0.4,0.8,0.8S43.2,46.9,42.7,46.9z M37.6,46.9
		h-1.7c-0.5,0-0.8-0.4-0.8-0.8s0.4-0.8,0.8-0.8h1.7c0.5,0,0.8,0.4,0.8,0.8S38.1,46.9,37.6,46.9L37.6,46.9L37.6,46.9z M32.6,46.5
		c-0.1,0-0.2,0-0.4-0.1c-0.6-0.3-1.2-0.7-1.6-1.2c-0.3-0.4-0.3-0.9,0.1-1.2s0.9-0.3,1.2,0.1l0,0c0.3,0.3,0.6,0.6,1,0.8
		c0.4,0.2,0.6,0.7,0.4,1.1C33.2,46.3,32.9,46.5,32.6,46.5L32.6,46.5z M30.4,42.3c-0.1,0-0.1,0-0.2,0c-0.5-0.1-0.8-0.5-0.7-1
		c0.1-0.7,0.4-1.3,0.8-1.9c0.3-0.4,0.8-0.4,1.2-0.1c0.3,0.3,0.4,0.8,0.2,1.1c-0.3,0.4-0.4,0.8-0.5,1.2C31.2,42,30.8,42.3,30.4,42.3
		L30.4,42.3z M34,39.2c-0.5,0-0.9-0.4-0.9-0.8c0-0.5,0.4-0.9,0.8-0.9l0,0c0.1,0,0.1,0,0.2,0h1.5c0.5,0,0.8,0.4,0.8,0.8
		s-0.4,0.8-0.8,0.8L34,39.2L34,39.2z M49.4,39.2h-0.2c-0.5,0-0.8-0.4-0.8-0.8s0.4-0.8,0.8-0.8h0.2c0.4,0,0.8-0.1,1.1-0.2
		c0.4-0.2,0.9,0.1,1.1,0.5c0.2,0.4,0,0.9-0.4,1.1C50.6,39.1,50,39.2,49.4,39.2L49.4,39.2z M45.8,39.2h-1.7c-0.5,0-0.8-0.4-0.8-0.8
		s0.4-0.8,0.8-0.8h1.7c0.5,0,0.8,0.4,0.8,0.8S46.3,39.2,45.8,39.2L45.8,39.2L45.8,39.2z M40.8,39.2h-1.7c-0.5,0-0.8-0.4-0.8-0.8
		s0.4-0.8,0.8-0.8l0,0h1.7c0.5,0,0.8,0.4,0.8,0.8S41.2,39.2,40.8,39.2L40.8,39.2z M53.1,36.5c-0.1,0-0.2,0-0.2,0
		c-0.4-0.1-0.7-0.6-0.6-1.1c0.1-0.3,0.1-0.6,0.1-0.8c0-0.2,0-0.3,0-0.5c-0.1-0.5,0.2-0.9,0.7-1s0.9,0.2,1,0.7c0,0.2,0.1,0.5,0.1,0.7
		c0,0.4-0.1,0.9-0.2,1.3C53.8,36.3,53.5,36.5,53.1,36.5L53.1,36.5z M51.3,32.1c-0.1,0-0.3,0-0.4-0.1c-0.4-0.2-0.8-0.4-1.2-0.4
		c-0.5-0.1-0.8-0.5-0.8-0.9c0-0.4,0.4-0.8,0.9-0.8c0.7,0.1,1.4,0.3,2,0.6c0.4,0.2,0.5,0.8,0.3,1.2C51.9,32,51.6,32.1,51.3,32.1z
		 M46.3,31.6h-1.7c-0.5,0-0.8-0.4-0.8-0.8s0.4-0.8,0.8-0.8h1.7c0.5,0,0.8,0.4,0.8,0.8S46.8,31.6,46.3,31.6z M41.2,31.6h-1.7
		c-0.5,0-0.8-0.4-0.8-0.8s0.4-0.8,0.8-0.8h1.7c0.5,0,0.8,0.4,0.8,0.8S41.7,31.6,41.2,31.6z M36.2,31.6h-1.7c-0.5,0-0.8-0.4-0.8-0.8
		s0.4-0.8,0.8-0.8h1.7c0.5,0,0.8,0.4,0.8,0.8S36.6,31.6,36.2,31.6z M31.1,31.6h-0.3c-0.6,0-1.1-0.1-1.7-0.3
		c-0.4-0.1-0.7-0.6-0.5-1.1c0.1-0.4,0.6-0.7,1.1-0.5c0,0,0.1,0,0.1,0c0.3,0.1,0.7,0.2,1.1,0.2h0.3c0.5,0,0.8,0.4,0.8,0.8
		S31.5,31.6,31.1,31.6L31.1,31.6z M27.1,29c-0.4,0-0.7-0.2-0.8-0.6c-0.2-0.5-0.2-1-0.2-1.5c0-0.2,0-0.4,0-0.6c0.1-0.5,0.5-0.8,1-0.7
		c0.4,0.1,0.8,0.5,0.7,0.9c0,0.1,0,0.3,0,0.4c0,0.3,0,0.6,0.1,0.9c0.1,0.4-0.1,0.9-0.5,1.1C27.3,29,27.2,29,27.1,29z M28.8,24.6
		c-0.5,0-0.8-0.4-0.9-0.8c0-0.3,0.2-0.6,0.4-0.7c0.6-0.4,1.3-0.6,1.9-0.7c0.5-0.1,0.9,0.3,1,0.7c0.1,0.5-0.3,0.9-0.7,1
		c0,0,0,0-0.1,0c-0.4,0-0.9,0.2-1.2,0.4C29.1,24.5,28.9,24.6,28.8,24.6L28.8,24.6z M40.5,24h-1.7c-0.5,0-0.8-0.4-0.8-0.8
		s0.4-0.8,0.8-0.8h1.7c0.5,0,0.8,0.4,0.8,0.8S41,24,40.5,24z M35.4,24h-1.7c-0.5,0-0.8-0.4-0.8-0.8s0.4-0.8,0.8-0.8h1.7
		c0.5,0,0.8,0.4,0.8,0.8S35.9,24,35.4,24z"/>
	<path class="st1" d="M49.8,6.8L49.8,6.8c-2.2-2.7-6.2-3-8.9-0.8c-0.3,0.2-0.5,0.5-0.8,0.8l0,0c-2.7,3.1-2.7,7.8,0,10.9l4.8,5.5
		l4.8-5.5C52.5,14.5,52.5,9.9,49.8,6.8z M45.2,15.5c-2.1,0-3.8-1.7-3.8-3.8s1.7-3.8,3.8-3.8c2.1,0,3.8,1.7,3.8,3.8
		C49,13.8,47.3,15.5,45.2,15.5L45.2,15.5z"/>
	<path class="st2" d="M20.8,28.8c-3-3.6-8.5-4.1-12.1-1.1C8.3,28,8,28.4,7.7,28.8l0,0C4,33.1,4,39.4,7.7,43.7l6.6,7.4l6.6-7.4
		C24.5,39.4,24.5,33.1,20.8,28.8z M14.2,39.2c-2.3,0-4.2-1.9-4.2-4.2s1.9-4.2,4.2-4.2c2.3,0,4.2,1.9,4.2,4.2
		C18.5,37.3,16.6,39.2,14.2,39.2z"/>
</g>
</svg>
